<!-- Copyright 2026 Geser Dugarov -->
<!-- SPDX-License-Identifier: Apache-2.0 -->
<svg xmlns="http://www.w3.org/2000/svg" width="140" height="32" viewBox="0 0 140 32"
     role="img" aria-labelledby="title">
  <title id="title">Ask Claude</title>
  <rect width="140" height="32" rx="6" fill="#24292f" />
  <rect x="0.5" y="0.5" width="139" height="31" rx="5.5" fill="none" stroke="#ffffff" stroke-opacity="0.2" />
  <g fill="none" stroke="#ffffff" stroke-width="1.5" stroke-linecap="round" stroke-linejoin="round">
    <path d="M13 9.5h11a2 2 0 0 1 2 2v7a2 2 0 0 1-2 2h-5l-4 3v-3h-2a2 2 0 0 1-2-2v-7a2 2 0 0 1 2-2Z" />
    <path d="M15 14h7m-7 3h4M121 20l7-7m-6 0h6v6" />
  </g>
  <text x="34" y="20.5" fill="#ffffff" font-family="Arial, Helvetica, sans-serif"
        font-size="13" font-weight="600">Ask Claude</text>
</svg>
